<svg width="1226" height="160" viewBox="0 0 1226 160" fill="none" xmlns="http://www.w3.org/2000/svg">
<path d="M116 112.6H123.4C124.733 112.6 125.8 113.067 126.6 114C127.533 114.933 128 116.067 128 117.4C128 118.733 127.533 119.867 126.6 120.8C125.8 121.6 124.733 122 123.4 122H116C110.133 122 106.067 120.733 103.8 118.2C101.667 115.667 100.6 112.8 100.6 109.6V65.6H27.2V119.4C27.2 120.733 26.6667 121.8 25.6 122.6C24.5333 123.533 23.2667 124 21.8 124C20.3333 124 19.0667 123.533 18 122.6C16.9333 121.8 16.4 120.733 16.4 119.4V9.79999H4.8C3.46667 9.79999 2.33333 9.39999 1.4 8.59999C0.6 7.66666 0.2 6.53333 0.2 5.19999C0.2 3.86666 0.6 2.73333 1.4 1.8C2.33333 0.866661 3.46667 0.399992 4.8 0.399992H22C23.3333 0.399992 24.5333 0.866661 25.6 1.8C26.6667 2.73333 27.2 3.86666 27.2 5.19999V56.2H100.6V9.79999H88.8C87.4667 9.79999 86.3333 9.39999 85.4 8.59999C84.6 7.66666 84.2 6.53333 84.2 5.19999C84.2 3.86666 84.6 2.73333 85.4 1.8C86.3333 0.866661 87.4667 0.399992 88.8 0.399992H106.2C107.533 0.399992 108.733 0.866661 109.8 1.8C110.867 2.73333 111.4 3.86666 111.4 5.19999V109.6C111.4 111.6 112.933 112.6 116 112.6Z" fill="white"/>
<path d="M513.4 119.4V9.79999H501.4C500.067 9.79999 498.933 9.39999 498 8.59999C497.2 7.66666 496.8 6.53333 496.8 5.19999C496.8 3.86666 497.2 2.73333 498 1.8C498.933 0.866661 500.067 0.399992 501.4 0.399992H518C520.133 0.399992 521.867 1.19999 523.2 2.8L573.4 71.4L623.4 2.99999C624.6 1.26666 626.267 0.399992 628.4 0.399992H645.4C646.733 0.399992 647.8 0.866661 648.6 1.8C649.533 2.73333 650 3.86666 650 5.19999C650 6.53333 649.533 7.66666 648.6 8.59999C647.8 9.39999 646.733 9.79999 645.4 9.79999H633.4V109.6C633.4 111.6 634.933 112.6 638 112.6H645.4C646.733 112.6 647.8 113.067 648.6 114C649.533 114.933 650 116.067 650 117.4C650 118.733 649.533 119.867 648.6 120.8C647.8 121.6 646.733 122 645.4 122H638C627.733 122 622.6 117.867 622.6 109.6V21.4L577.8 82.6C576.733 84.0667 575.267 84.8 573.4 84.8C571.533 84.8 570.067 84.0667 569 82.6L524.2 21.4V119.4C524.2 120.733 523.667 121.8 522.6 122.6C521.533 123.533 520.267 124 518.8 124C517.333 124 516.067 123.533 515 122.6C513.933 121.8 513.4 120.733 513.4 119.4Z" fill="white"/>
<path d="M135.6 83.2C135.6 75.8667 137.4 69.1333 141 63C144.6 56.8667 149.467 52 155.6 48.4C161.733 44.8 168.533 43 176 43C183.733 43 190.667 44.8 196.8 48.4C202.933 52 207.733 56.8667 211.2 63C214.8 69.1333 216.6 75.8667 216.6 83.2C216.6 90.6667 214.8 97.4667 211.2 103.6C207.733 109.733 202.867 114.6 196.6 118.2C190.467 121.667 183.6 123.4 176 123.4C168.4 123.4 161.533 121.667 155.4 118.2C149.4 114.733 144.6 110 141 104C137.4 98 135.6 91.0667 135.6 83.2ZM142.2 83.4C142.2 89.8 143.667 95.6 146.6 100.8C149.667 105.867 153.733 110 158.8 113.2C164 116.267 169.733 117.8 176 117.8C182.267 117.8 187.933 116.267 193 113.2C198.2 110.133 202.267 106 205.2 100.8C208.267 95.6 209.8 89.8 209.8 83.4C209.8 77 208.267 71.2 205.2 66C202.267 60.8 198.2 56.6667 193 53.6C187.933 50.4 182.267 48.8 176 48.8C169.467 48.8 163.667 50.4667 158.6 53.8C153.533 57 149.533 61.2667 146.6 66.6C143.667 71.9333 142.2 77.5333 142.2 83.4ZM269.348 123.8C262.282 123.8 256.615 121.667 252.348 117.4C248.082 113.133 245.815 107.667 245.548 101V45.2H252.148V99.2C252.282 104.533 253.948 108.933 257.148 112.4C260.348 115.867 265.082 117.733 271.348 118C276.548 118 281.482 116.733 286.148 114.2C290.815 111.533 294.548 107.933 297.348 103.4C300.282 98.7333 301.748 93.5333 301.748 87.8V45.2H308.348V122H302.548L301.948 98.2L302.748 101.6C301.548 105.733 299.215 109.533 295.748 113C292.415 116.333 288.415 119 283.748 121C279.215 122.867 274.415 123.8 269.348 123.8ZM361.958 123.6C357.824 123.6 353.424 122.867 348.758 121.4C344.091 119.8 340.224 117.2 337.158 113.6L340.558 109.2C342.824 111.867 345.824 114.067 349.558 115.8C353.291 117.4 357.291 118.2 361.558 118.2C364.758 118.2 367.758 117.733 370.558 116.8C373.491 115.733 375.891 114.067 377.758 111.8C379.624 109.4 380.558 106.2 380.558 102.2C380.558 98.3333 379.491 95.3333 377.358 93.2C375.358 90.9333 372.691 89.2 369.358 88C366.158 86.6667 362.824 85.4 359.358 84.2C354.024 82.4667 349.491 80.1333 345.758 77.2C342.158 74.2667 340.358 69.8667 340.358 64C340.358 59.7333 341.358 56.1333 343.358 53.2C345.358 50.1333 348.024 47.8 351.358 46.2C354.691 44.6 358.358 43.8 362.358 43.8C365.958 43.8 369.758 44.4667 373.758 45.8C377.758 47.1333 381.291 49.4 384.358 52.6L381.158 57C379.024 54.2 376.158 52.2667 372.558 51.2C368.958 50 365.824 49.3333 363.158 49.2C360.891 49.2 358.491 49.7333 355.958 50.8C353.424 51.7333 351.224 53.2667 349.358 55.4C347.624 57.4 346.758 60 346.758 63.2C346.758 66.4 347.558 69 349.158 71C350.891 73 353.091 74.6 355.758 75.8C358.424 77 361.224 78.1333 364.158 79.2C367.891 80.5333 371.491 82 374.958 83.6C378.558 85.0667 381.491 87.1333 383.758 89.8C386.024 92.4667 387.158 96.0667 387.158 100.6C387.158 105.133 386.158 109.133 384.158 112.6C382.291 116.067 379.491 118.8 375.758 120.8C372.158 122.667 367.558 123.6 361.958 123.6ZM449.047 123.4C441.314 123.4 434.38 121.667 428.247 118.2C422.247 114.6 417.447 109.8 413.847 103.8C410.38 97.6667 408.647 90.8667 408.647 83.4C408.647 75.9333 410.447 69.1333 414.047 63C417.647 56.8667 422.514 52 428.647 48.4C434.78 44.8 441.58 43 449.047 43C457.98 43 465.447 45.6 471.447 50.8C477.58 55.8667 482.047 62.4 484.847 70.4L416.447 97.6L414.447 92.6L479.047 67L477.447 69.4C474.914 63.8 471.18 58.9333 466.247 54.8C461.447 50.6667 455.58 48.6 448.647 48.6C442.38 48.6 436.714 50.1333 431.647 53.2C426.58 56.2667 422.514 60.4667 419.447 65.8C416.514 71 415.047 76.8 415.047 83.2C415.047 89.2 416.447 94.8667 419.247 100.2C422.18 105.4 426.18 109.6 431.247 112.8C436.314 116 442.247 117.6 449.047 117.6C453.58 117.6 457.847 116.8 461.847 115.2C465.98 113.467 469.58 111.267 472.647 108.6L476.447 113.2C472.714 116.267 468.447 118.733 463.647 120.6C458.98 122.467 454.114 123.4 449.047 123.4Z" fill="white"/>
<path d="M692 123.4C684.667 123.4 678 121.667 672 118.2C666.133 114.733 661.4 110.067 657.8 104.2C654.333 98.2 652.6 91.3333 652.6 83.6C652.6 75.0667 654.4 67.8 658 61.8C661.733 55.6667 666.667 51.0667 672.8 48C678.933 44.8 685.867 43.2 693.6 43.2C700.933 43.2 707.733 45.3333 714 49.6C720.4 53.8667 725.067 59.3333 728 66L727 68.8L728.2 45.2H733.8V122H727.2V97L728.4 100.2C727.333 103.267 725.6 106.2 723.2 109C720.933 111.667 718.133 114.133 714.8 116.4C711.6 118.533 708.067 120.267 704.2 121.6C700.333 122.8 696.267 123.4 692 123.4ZM693.2 117.8C699.333 117.8 704.933 116.467 710 113.8C715.067 111 719.133 107.267 722.2 102.6C725.267 97.8 726.933 92.2667 727.2 86V76.4C726.133 71.2 723.933 66.5333 720.6 62.4C717.4 58.2667 713.4 55 708.6 52.6C703.8 50.0667 698.6 48.8 693 48.8C686.867 48.8 681.2 50.2 676 53C670.8 55.8 666.667 59.8 663.6 65C660.667 70.2 659.2 76.2667 659.2 83.2C659.2 89.6 660.733 95.4 663.8 100.6C666.867 105.8 670.933 110 676 113.2C681.2 116.267 686.933 117.8 693.2 117.8ZM775.761 45.2L776.761 69.6L775.761 65.8C778.028 58.8667 782.294 53.4 788.561 49.4C794.828 45.4 801.761 43.4 809.361 43.4C816.561 43.4 822.361 45.5333 826.761 49.8C831.161 54.0667 833.428 59.5333 833.561 66.2V122H826.761V67.8C826.628 62.4667 824.894 58.0667 821.561 54.6C818.361 51.1333 813.761 49.2667 807.761 49C802.294 49 797.228 50.2667 792.561 52.8C787.894 55.3333 784.094 58.8667 781.161 63.4C778.361 67.8 776.961 73 776.961 79V122H770.361V45.2H775.761ZM901.766 123.4C894.432 123.4 887.766 121.667 881.766 118.2C875.899 114.733 871.166 110.067 867.566 104.2C864.099 98.2 862.366 91.3333 862.366 83.6C862.366 75.0667 864.166 67.8 867.766 61.8C871.499 55.6667 876.432 51.0667 882.566 48C888.699 44.8 895.632 43.2 903.366 43.2C910.699 43.2 917.499 45.3333 923.766 49.6C930.166 53.8667 934.832 59.3333 937.766 66L936.766 68.8L937.966 45.2H943.566V122H936.966V97L938.166 100.2C937.099 103.267 935.366 106.2 932.966 109C930.699 111.667 927.899 114.133 924.566 116.4C921.366 118.533 917.832 120.267 913.966 121.6C910.099 122.8 906.032 123.4 901.766 123.4ZM902.966 117.8C909.099 117.8 914.699 116.467 919.766 113.8C924.832 111 928.899 107.267 931.966 102.6C935.032 97.8 936.699 92.2667 936.966 86V76.4C935.899 71.2 933.699 66.5333 930.366 62.4C927.166 58.2667 923.166 55 918.366 52.6C913.566 50.0667 908.366 48.8 902.766 48.8C896.632 48.8 890.966 50.2 885.766 53C880.566 55.8 876.432 59.8 873.366 65C870.432 70.2 868.966 76.2667 868.966 83.2C868.966 89.6 870.499 95.4 873.566 100.6C876.632 105.8 880.699 110 885.766 113.2C890.966 116.267 896.699 117.8 902.966 117.8ZM1013.13 159.2C1009.26 159.2 1005.46 158.733 1001.73 157.8C997.993 157 994.193 155.4 990.327 153C986.46 150.733 982.393 147.533 978.127 143.4L981.927 139C988.06 145 993.66 148.867 998.727 150.6C1003.79 152.467 1008.53 153.4 1012.93 153.4C1021.59 153.4 1028.39 152 1033.33 149.2C1038.26 146.533 1041.79 142.933 1043.93 138.4C1046.06 133.867 1047.19 128.8 1047.33 123.2L1047.53 96.8L1049.13 98.6C1046.46 105.933 1041.66 111.933 1034.73 116.6C1027.93 121.133 1020.26 123.4 1011.73 123.4C1004.39 123.4 997.727 121.667 991.727 118.2C985.86 114.6 981.127 109.8 977.527 103.8C974.06 97.6667 972.327 90.8667 972.327 83.4C972.327 75.4 974.127 68.4 977.727 62.4C981.46 56.4 986.393 51.7333 992.527 48.4C998.66 44.9333 1005.46 43.2 1012.93 43.2C1020.53 43.2 1027.53 45.2667 1033.93 49.4C1040.46 53.4 1045.19 58.6667 1048.13 65.2L1047.33 68.6L1048.53 45.2H1054.13V123.4C1054.13 129.533 1052.79 135.333 1050.13 140.8C1047.59 146.267 1043.33 150.667 1037.33 154C1031.46 157.467 1023.39 159.2 1013.13 159.2ZM978.927 83.2C978.927 89.6 980.393 95.4 983.327 100.6C986.393 105.8 990.527 110 995.727 113.2C1000.93 116.267 1006.73 117.8 1013.13 117.8C1019.26 117.8 1024.86 116.4 1029.93 113.6C1035.13 110.667 1039.26 106.867 1042.33 102.2C1045.53 97.4 1047.26 92.2 1047.53 86.6V76.6C1046.46 71.2667 1044.26 66.5333 1040.93 62.4C1037.73 58.1333 1033.73 54.8 1028.93 52.4C1024.13 50 1018.86 48.8 1013.13 48.8C1006.73 48.8 1000.93 50.2667 995.727 53.2C990.527 56 986.393 60 983.327 65.2C980.393 70.4 978.927 76.4 978.927 83.2ZM1123.27 123.4C1115.54 123.4 1108.61 121.667 1102.47 118.2C1096.47 114.6 1091.67 109.8 1088.07 103.8C1084.61 97.6667 1082.87 90.8667 1082.87 83.4C1082.87 75.9333 1084.67 69.1333 1088.27 63C1091.87 56.8667 1096.74 52 1102.87 48.4C1109.01 44.8 1115.81 43 1123.27 43C1132.21 43 1139.67 45.6 1145.67 50.8C1151.81 55.8667 1156.27 62.4 1159.07 70.4L1090.67 97.6L1088.67 92.6L1153.27 67L1151.67 69.4C1149.14 63.8 1145.41 58.9333 1140.47 54.8C1135.67 50.6667 1129.81 48.6 1122.87 48.6C1116.61 48.6 1110.94 50.1333 1105.87 53.2C1100.81 56.2667 1096.74 60.4667 1093.67 65.8C1090.74 71 1089.27 76.8 1089.27 83.2C1089.27 89.2 1090.67 94.8667 1093.47 100.2C1096.41 105.4 1100.41 109.6 1105.47 112.8C1110.54 116 1116.47 117.6 1123.27 117.6C1127.81 117.6 1132.07 116.8 1136.07 115.2C1140.21 113.467 1143.81 111.267 1146.87 108.6L1150.67 113.2C1146.94 116.267 1142.67 118.733 1137.87 120.6C1133.21 122.467 1128.34 123.4 1123.27 123.4ZM1191.39 45.2L1192.19 69L1191.39 66.4C1192.99 61.6 1195.59 57.5333 1199.19 54.2C1202.79 50.7333 1206.85 48.0667 1211.39 46.2C1215.92 44.3333 1220.52 43.4 1225.19 43.4L1224.79 49.6C1218.92 49.7333 1213.52 51.1333 1208.59 53.8C1203.65 56.3333 1199.72 59.8667 1196.79 64.4C1193.99 68.8 1192.59 73.8 1192.59 79.4V122H1185.99V45.2H1191.39Z" fill="white"/>
</svg>
